<mxfile host="app.diagrams.net" modified="2022-07-22T23:03:53.663Z" agent="5.0 (Macintosh; Intel Mac OS X 10_15_7) AppleWebKit/537.36 (KHTML, like Gecko) Chrome/103.0.0.0 Safari/537.36" etag="uUtVsury8uQlGcXFvl8B" version="20.1.3" type="github">
  <diagram id="cw_ZRWTb0h0Xa2kBe24C" name="Page-1">
    <mxGraphModel dx="1666" dy="771" grid="1" gridSize="10" guides="1" tooltips="1" connect="1" arrows="1" fold="1" page="1" pageScale="1" pageWidth="1169" pageHeight="827" math="0" shadow="0">
      <root>
        <mxCell id="0" />
        <mxCell id="1" parent="0" />
        <mxCell id="zc51Hbrsu6eLosPb3OaD-5" value="" style="group" parent="1" vertex="1" connectable="0">
          <mxGeometry x="133" y="177.5" width="120" height="152.5" as="geometry" />
        </mxCell>
        <mxCell id="zc51Hbrsu6eLosPb3OaD-6" value="" style="sketch=0;points=[[0,0,0],[0.25,0,0],[0.5,0,0],[0.75,0,0],[1,0,0],[0,1,0],[0.25,1,0],[0.5,1,0],[0.75,1,0],[1,1,0],[0,0.25,0],[0,0.5,0],[0,0.75,0],[1,0.25,0],[1,0.5,0],[1,0.75,0]];outlineConnect=0;fontColor=#232F3E;gradientColor=#F78E04;gradientDirection=north;fillColor=#D05C17;strokeColor=#ffffff;dashed=0;verticalLabelPosition=bottom;verticalAlign=top;align=center;html=1;fontSize=12;fontStyle=0;aspect=fixed;shape=mxgraph.aws4.resourceIcon;resIcon=mxgraph.aws4.ecs;" parent="zc51Hbrsu6eLosPb3OaD-5" vertex="1">
          <mxGeometry width="35.421428571428564" height="35.421428571428564" as="geometry" />
        </mxCell>
        <mxCell id="zc51Hbrsu6eLosPb3OaD-7" value="ECS" style="text;html=1;align=center;verticalAlign=middle;resizable=0;points=[];autosize=1;strokeColor=none;fillColor=none;" parent="zc51Hbrsu6eLosPb3OaD-5" vertex="1">
          <mxGeometry x="3.1999999999999997" y="44.224999999999994" width="50" height="30" as="geometry" />
        </mxCell>
        <mxCell id="zc51Hbrsu6eLosPb3OaD-8" value="" style="rounded=0;whiteSpace=wrap;html=1;fillColor=none;strokeColor=#FFB570;strokeWidth=2;" parent="zc51Hbrsu6eLosPb3OaD-5" vertex="1">
          <mxGeometry x="-16" y="-15.249999999999998" width="152" height="167.75" as="geometry" />
        </mxCell>
        <mxCell id="zc51Hbrsu6eLosPb3OaD-17" style="edgeStyle=orthogonalEdgeStyle;rounded=0;orthogonalLoop=1;jettySize=auto;html=1;entryX=0;entryY=0.5;entryDx=0;entryDy=0;strokeWidth=1;" parent="1" source="zc51Hbrsu6eLosPb3OaD-9" target="zc51Hbrsu6eLosPb3OaD-14" edge="1">
          <mxGeometry relative="1" as="geometry" />
        </mxCell>
        <mxCell id="zc51Hbrsu6eLosPb3OaD-9" value="" style="sketch=0;outlineConnect=0;fontColor=#232F3E;gradientColor=none;fillColor=#D45B07;strokeColor=none;dashed=0;verticalLabelPosition=bottom;verticalAlign=top;align=center;html=1;fontSize=12;fontStyle=0;aspect=fixed;pointerEvents=1;shape=mxgraph.aws4.container_1;" parent="1" vertex="1">
          <mxGeometry x="180" y="250" width="48" height="31" as="geometry" />
        </mxCell>
        <mxCell id="zc51Hbrsu6eLosPb3OaD-10" value="ECS Task" style="text;html=1;align=center;verticalAlign=middle;resizable=0;points=[];autosize=1;strokeColor=none;fillColor=none;" parent="1" vertex="1">
          <mxGeometry x="165" y="281" width="80" height="30" as="geometry" />
        </mxCell>
        <mxCell id="zc51Hbrsu6eLosPb3OaD-11" value="" style="rounded=0;whiteSpace=wrap;html=1;fillColor=none;strokeColor=#FF6666;strokeWidth=2;" parent="1" vertex="1">
          <mxGeometry x="360" y="160" width="190" height="170" as="geometry" />
        </mxCell>
        <mxCell id="zc51Hbrsu6eLosPb3OaD-12" value="" style="sketch=0;points=[[0,0,0],[0.25,0,0],[0.5,0,0],[0.75,0,0],[1,0,0],[0,1,0],[0.25,1,0],[0.5,1,0],[0.75,1,0],[1,1,0],[0,0.25,0],[0,0.5,0],[0,0.75,0],[1,0.25,0],[1,0.5,0],[1,0.75,0]];points=[[0,0,0],[0.25,0,0],[0.5,0,0],[0.75,0,0],[1,0,0],[0,1,0],[0.25,1,0],[0.5,1,0],[0.75,1,0],[1,1,0],[0,0.25,0],[0,0.5,0],[0,0.75,0],[1,0.25,0],[1,0.5,0],[1,0.75,0]];outlineConnect=0;fontColor=#232F3E;gradientColor=#F34482;gradientDirection=north;fillColor=#BC1356;strokeColor=#ffffff;dashed=0;verticalLabelPosition=bottom;verticalAlign=top;align=center;html=1;fontSize=12;fontStyle=0;aspect=fixed;shape=mxgraph.aws4.resourceIcon;resIcon=mxgraph.aws4.cloudwatch_2;" parent="1" vertex="1">
          <mxGeometry x="380" y="175.88" width="60" height="60" as="geometry" />
        </mxCell>
        <mxCell id="zc51Hbrsu6eLosPb3OaD-13" value="CloudWatch" style="text;html=1;align=center;verticalAlign=middle;resizable=0;points=[];autosize=1;strokeColor=none;fillColor=none;" parent="1" vertex="1">
          <mxGeometry x="440" y="156" width="90" height="30" as="geometry" />
        </mxCell>
        <mxCell id="zc51Hbrsu6eLosPb3OaD-32" style="edgeStyle=orthogonalEdgeStyle;rounded=0;orthogonalLoop=1;jettySize=auto;html=1;entryX=0;entryY=0.5;entryDx=0;entryDy=0;strokeWidth=1;" parent="1" source="zc51Hbrsu6eLosPb3OaD-14" target="zc51Hbrsu6eLosPb3OaD-31" edge="1">
          <mxGeometry relative="1" as="geometry" />
        </mxCell>
        <mxCell id="zc51Hbrsu6eLosPb3OaD-14" value="Logs" style="rounded=0;whiteSpace=wrap;html=1;strokeColor=#FF6666;strokeWidth=2;fillColor=default;" parent="1" vertex="1">
          <mxGeometry x="395" y="247.5" width="120" height="36" as="geometry" />
        </mxCell>
        <mxCell id="nm4PWFOW4KWVE51XVC0--2" style="edgeStyle=orthogonalEdgeStyle;rounded=0;orthogonalLoop=1;jettySize=auto;html=1;" edge="1" parent="1" source="zc51Hbrsu6eLosPb3OaD-22" target="zc51Hbrsu6eLosPb3OaD-24">
          <mxGeometry relative="1" as="geometry" />
        </mxCell>
        <mxCell id="zc51Hbrsu6eLosPb3OaD-22" value="" style="sketch=0;points=[[0,0,0],[0.25,0,0],[0.5,0,0],[0.75,0,0],[1,0,0],[0,1,0],[0.25,1,0],[0.5,1,0],[0.75,1,0],[1,1,0],[0,0.25,0],[0,0.5,0],[0,0.75,0],[1,0.25,0],[1,0.5,0],[1,0.75,0]];outlineConnect=0;fontColor=#232F3E;gradientColor=#F78E04;gradientDirection=north;fillColor=#D05C17;strokeColor=#ffffff;dashed=0;verticalLabelPosition=bottom;verticalAlign=top;align=center;html=1;fontSize=12;fontStyle=0;aspect=fixed;shape=mxgraph.aws4.resourceIcon;resIcon=mxgraph.aws4.lambda;" parent="1" vertex="1">
          <mxGeometry x="760" y="235.88" width="58" height="58" as="geometry" />
        </mxCell>
        <mxCell id="zc51Hbrsu6eLosPb3OaD-23" value="" style="sketch=0;outlineConnect=0;fontColor=#232F3E;gradientColor=none;fillColor=#232F3D;strokeColor=none;dashed=0;verticalLabelPosition=bottom;verticalAlign=top;align=center;html=1;fontSize=12;fontStyle=0;aspect=fixed;pointerEvents=1;shape=mxgraph.aws4.user;" parent="1" vertex="1">
          <mxGeometry x="1040" y="235.88" width="48" height="48" as="geometry" />
        </mxCell>
        <mxCell id="zc51Hbrsu6eLosPb3OaD-27" style="edgeStyle=orthogonalEdgeStyle;rounded=0;orthogonalLoop=1;jettySize=auto;html=1;strokeWidth=1;" parent="1" source="zc51Hbrsu6eLosPb3OaD-24" target="zc51Hbrsu6eLosPb3OaD-23" edge="1">
          <mxGeometry relative="1" as="geometry">
            <Array as="points">
              <mxPoint x="909" y="250" />
            </Array>
          </mxGeometry>
        </mxCell>
        <mxCell id="zc51Hbrsu6eLosPb3OaD-24" value="" style="sketch=0;outlineConnect=0;fontColor=#232F3E;gradientColor=none;fillColor=#B0084D;strokeColor=none;dashed=0;verticalLabelPosition=bottom;verticalAlign=top;align=center;html=1;fontSize=12;fontStyle=0;aspect=fixed;pointerEvents=1;shape=mxgraph.aws4.email_notification;" parent="1" vertex="1">
          <mxGeometry x="900" y="236.88" width="56" height="56" as="geometry" />
        </mxCell>
        <mxCell id="zc51Hbrsu6eLosPb3OaD-33" style="edgeStyle=orthogonalEdgeStyle;rounded=0;orthogonalLoop=1;jettySize=auto;html=1;entryX=0;entryY=0.5;entryDx=0;entryDy=0;entryPerimeter=0;strokeWidth=1;" parent="1" source="zc51Hbrsu6eLosPb3OaD-31" target="zc51Hbrsu6eLosPb3OaD-22" edge="1">
          <mxGeometry relative="1" as="geometry" />
        </mxCell>
        <mxCell id="zc51Hbrsu6eLosPb3OaD-31" value="" style="shape=image;html=1;verticalAlign=top;verticalLabelPosition=bottom;labelBackgroundColor=#ffffff;imageAspect=0;aspect=fixed;image=https://cdn4.iconfinder.com/data/icons/ios-web-user-interface-multi-circle-flat-vol-5/512/Descending_filter_filtering_tool_funnel_sort-128.png;strokeColor=#FF6666;strokeWidth=2;fillColor=default;" parent="1" vertex="1">
          <mxGeometry x="613.38" y="237.13" width="56.75" height="56.75" as="geometry" />
        </mxCell>
        <mxCell id="zc51Hbrsu6eLosPb3OaD-37" value="Lambda" style="text;html=1;align=center;verticalAlign=middle;resizable=0;points=[];autosize=1;strokeColor=none;fillColor=none;" parent="1" vertex="1">
          <mxGeometry x="754" y="295.75" width="70" height="30" as="geometry" />
        </mxCell>
        <mxCell id="zc51Hbrsu6eLosPb3OaD-38" value="SNS(Email)" style="text;html=1;align=center;verticalAlign=middle;resizable=0;points=[];autosize=1;strokeColor=none;fillColor=none;" parent="1" vertex="1">
          <mxGeometry x="883" y="300" width="90" height="30" as="geometry" />
        </mxCell>
        <mxCell id="zc51Hbrsu6eLosPb3OaD-43" value="Filter" style="text;html=1;align=center;verticalAlign=middle;resizable=0;points=[];autosize=1;strokeColor=none;fillColor=none;" parent="1" vertex="1">
          <mxGeometry x="620.13" y="291.75" width="50" height="30" as="geometry" />
        </mxCell>
        <mxCell id="zc51Hbrsu6eLosPb3OaD-44" value="Administrator" style="text;html=1;align=center;verticalAlign=middle;resizable=0;points=[];autosize=1;strokeColor=none;fillColor=none;" parent="1" vertex="1">
          <mxGeometry x="1019" y="281" width="90" height="30" as="geometry" />
        </mxCell>
        <mxCell id="zc51Hbrsu6eLosPb3OaD-46" value="" style="shape=image;html=1;verticalAlign=top;verticalLabelPosition=bottom;labelBackgroundColor=#ffffff;imageAspect=0;aspect=fixed;image=https://cdn3.iconfinder.com/data/icons/dompicon-glyph-file-format-2/256/file-log-format-type-128.png;strokeColor=#FF6666;strokeWidth=2;fillColor=default;" parent="1" vertex="1">
          <mxGeometry x="290" y="215.75" width="50" height="50" as="geometry" />
        </mxCell>
        <mxCell id="zc51Hbrsu6eLosPb3OaD-48" value="(Only Error Log)" style="text;html=1;align=center;verticalAlign=middle;resizable=0;points=[];autosize=1;strokeColor=none;fillColor=none;" parent="1" vertex="1">
          <mxGeometry x="590.13" y="301.75" width="110" height="30" as="geometry" />
        </mxCell>
      </root>
    </mxGraphModel>
  </diagram>
</mxfile>
